<svg width="198" height="25" viewBox="0 0 198 25" fill="none" xmlns="http://www.w3.org/2000/svg">
<path d="M68.9377 3.32292C70.2085 3.32292 71.4273 3.82775 72.3259 4.72636C73.2245 5.62497 73.7293 6.84375 73.7293 8.11458V10.9896C74.4918 10.9896 75.2231 11.2925 75.7623 11.8317C76.3014 12.3708 76.6043 13.1021 76.6043 13.8646V19.6146C76.6043 20.3771 76.3014 21.1083 75.7623 21.6475C75.2231 22.1867 74.4918 22.4896 73.7293 22.4896H64.146C63.3835 22.4896 62.6522 22.1867 62.1131 21.6475C61.5739 21.1083 61.271 20.3771 61.271 19.6146V13.8646C61.271 13.1021 61.5739 12.3708 62.1131 11.8317C62.6522 11.2925 63.3835 10.9896 64.146 10.9896V8.11458C64.146 6.84375 64.6508 5.62497 65.5494 4.72636C66.4481 3.82775 67.6668 3.32292 68.9377 3.32292ZM68.9377 14.8229C68.4541 14.8228 67.9884 15.0054 67.6338 15.3342C67.2792 15.663 67.0621 16.1136 67.0258 16.5958L67.021 16.7396C67.021 17.1187 67.1334 17.4892 67.344 17.8044C67.5546 18.1196 67.854 18.3653 68.2042 18.5104C68.5544 18.6554 68.9398 18.6934 69.3116 18.6194C69.6834 18.5455 70.0249 18.3629 70.293 18.0949C70.561 17.8268 70.7435 17.4853 70.8175 17.1135C70.8915 16.7417 70.8535 16.3563 70.7084 16.0061C70.5634 15.6559 70.3177 15.3565 70.0025 15.1459C69.6873 14.9353 69.3167 14.8229 68.9377 14.8229ZM68.9377 5.23958C68.1752 5.23958 67.4439 5.54248 66.9047 6.08165C66.3656 6.62082 66.0627 7.35209 66.0627 8.11458V10.9896H71.8127V8.11458C71.8127 7.35209 71.5098 6.62082 70.9706 6.08165C70.4314 5.54248 69.7002 5.23958 68.9377 5.23958Z" fill="#09090B"/>
<path d="M181.312 0H197.641V3.20312H184.516V9.60938H195.719V12.8125H184.516V19.2031H197.641V22.4062H181.312V0Z" fill="#09090B"/>
<path d="M159.547 0H177.469V3.20312H170.109V22.4062H166.906V3.20312H159.547V0Z" fill="#09090B"/>
<path d="M141.172 0L147.688 10.4688L154.219 0H157.938L149.297 13.5156V22.4062H146.094V13.5156L137.453 0H141.172Z" fill="#09090B"/>
<path d="M131.781 10.7188C132.25 10.8646 132.677 11.0729 133.062 11.3438C133.448 11.6146 133.776 11.9635 134.047 12.3906C134.318 12.8073 134.526 13.3021 134.672 13.875C134.818 14.4479 134.891 15.1042 134.891 15.8438V16.9688C134.891 20.5938 133.078 22.4062 129.453 22.4062H117.188V0H128.812C132.438 0 134.25 1.81771 134.25 5.45312V5.85938C134.25 7.11979 134.047 8.15104 133.641 8.95312C133.245 9.74479 132.625 10.3333 131.781 10.7188ZM120.328 12.6406V19.2656H129.359C130.203 19.2656 130.812 19.0677 131.188 18.6719C131.562 18.276 131.75 17.6562 131.75 16.8125V15.0781C131.75 14.224 131.562 13.6042 131.188 13.2188C130.812 12.8333 130.203 12.6406 129.359 12.6406H120.328ZM120.328 3.14062V9.51562H128.938C129.708 9.48438 130.26 9.27604 130.594 8.89062C130.938 8.49479 131.109 7.89062 131.109 7.07812V5.60938C131.109 4.75521 130.922 4.13021 130.547 3.73438C130.172 3.33854 129.562 3.14062 128.719 3.14062H120.328Z" fill="#09090B"/>
<path d="M111.734 15.6562H100.719V19.3281H111.734V22.4062H100.719C100.302 22.4062 99.9062 22.3281 99.5312 22.1719C99.1562 22.0052 98.8281 21.7865 98.5469 21.5156C98.276 21.2344 98.0573 20.9062 97.8906 20.5312C97.7344 20.1562 97.6562 19.7552 97.6562 19.3281V8.84375C97.6562 8.41667 97.7344 8.01562 97.8906 7.64062C98.0573 7.26562 98.276 6.94271 98.5469 6.67188C98.8281 6.39062 99.1562 6.17188 99.5312 6.01562C99.9062 5.84896 100.302 5.76562 100.719 5.76562H108.656C109.083 5.76562 109.484 5.84896 109.859 6.01562C110.234 6.17188 110.557 6.39062 110.828 6.67188C111.109 6.94271 111.328 7.26562 111.484 7.64062C111.651 8.01562 111.734 8.41667 111.734 8.84375V15.6562ZM100.719 8.84375V12.5781H108.656V8.84375H100.719Z" fill="#09090B"/>
<path d="M84.4062 8.84375V22.4062H81.3438V5.76562H84.4062V8.70312C84.4271 8.29688 84.5208 7.91667 84.6875 7.5625C84.8542 7.19792 85.0729 6.88542 85.3438 6.625C85.625 6.35417 85.9479 6.14583 86.3125 6C86.6771 5.84375 87.0677 5.76562 87.4844 5.76562H90.75C91.1771 5.76562 91.5729 5.84896 91.9375 6.01562C92.3125 6.17188 92.6406 6.39062 92.9219 6.67188C93.2031 6.94271 93.4219 7.26562 93.5781 7.64062C93.7448 8.01562 93.8281 8.41667 93.8281 8.84375V11.6562H90.75V8.84375H84.4062Z" fill="#09090B"/>
<path d="M45.5 8.48438V18.9688H53.4375V16.1562H56.5156V18.9688C56.5156 19.3958 56.4323 19.7969 56.2656 20.1719C56.1094 20.5469 55.8906 20.875 55.6094 21.1562C55.3385 21.4271 55.0156 21.6458 54.6406 21.8125C54.2656 21.9688 53.8646 22.0469 53.4375 22.0469H45.5C45.0833 22.0469 44.6875 21.9688 44.3125 21.8125C43.9375 21.6458 43.6094 21.4271 43.3281 21.1562C43.0573 20.875 42.8385 20.5469 42.6719 20.1719C42.5156 19.7969 42.4375 19.3958 42.4375 18.9688V8.48438C42.4375 8.05729 42.5156 7.65625 42.6719 7.28125C42.8385 6.90625 43.0573 6.58333 43.3281 6.3125C43.6094 6.03125 43.9375 5.8125 44.3125 5.65625C44.6875 5.48958 45.0833 5.40625 45.5 5.40625H53.4375C53.8646 5.40625 54.2656 5.48958 54.6406 5.65625C55.0156 5.8125 55.3385 6.03125 55.6094 6.3125C55.8906 6.58333 56.1094 6.90625 56.2656 7.28125C56.4323 7.65625 56.5156 8.05729 56.5156 8.48438V11.2969H53.4375V8.48438H45.5Z" fill="#09090B"/>
<path d="M37.1406 15.6562H26.125V19.3281H37.1406V22.4062H26.125C25.7083 22.4062 25.3125 22.3281 24.9375 22.1719C24.5625 22.0052 24.2344 21.7865 23.9531 21.5156C23.6823 21.2344 23.4635 20.9062 23.2969 20.5312C23.1406 20.1562 23.0625 19.7552 23.0625 19.3281V8.84375C23.0625 8.41667 23.1406 8.01562 23.2969 7.64062C23.4635 7.26562 23.6823 6.94271 23.9531 6.67188C24.2344 6.39062 24.5625 6.17188 24.9375 6.01562C25.3125 5.84896 25.7083 5.76562 26.125 5.76562H34.0625C34.4896 5.76562 34.8906 5.84896 35.2656 6.01562C35.6406 6.17188 35.9635 6.39062 36.2344 6.67188C36.5156 6.94271 36.7344 7.26562 36.8906 7.64062C37.0573 8.01562 37.1406 8.41667 37.1406 8.84375V15.6562ZM26.125 8.84375V12.5781H34.0625V8.84375H26.125Z" fill="#09090B"/>
<path d="M3.51562 12.8125C3.07812 12.8125 2.66146 12.7292 2.26562 12.5625C1.88021 12.3854 1.54167 12.1562 1.25 11.875C0.958333 11.5833 0.729167 11.2448 0.5625 10.8594C0.395833 10.4635 0.3125 10.0469 0.3125 9.60938V3.20312C0.3125 2.76562 0.395833 2.35417 0.5625 1.96875C0.729167 1.57292 0.958333 1.23438 1.25 0.953125C1.54167 0.661458 1.88021 0.432292 2.26562 0.265625C2.66146 0.0885417 3.07812 0 3.51562 0H14.3906C14.8281 0 15.2396 0.0885417 15.625 0.265625C16.0208 0.432292 16.3646 0.661458 16.6562 0.953125C16.9479 1.23438 17.1771 1.57292 17.3438 1.96875C17.5104 2.35417 17.5938 2.76562 17.5938 3.20312V6.09375H14.3906V3.20312H3.51562V9.60938H14.3906C14.8281 9.60938 15.2396 9.69271 15.625 9.85938C16.0208 10.026 16.3646 10.2552 16.6562 10.5469C16.9479 10.8385 17.1771 11.1823 17.3438 11.5781C17.5104 11.9635 17.5938 12.375 17.5938 12.8125V19.2031C17.5938 19.6406 17.5104 20.0573 17.3438 20.4531C17.1771 20.8385 16.9479 21.1771 16.6562 21.4688C16.3646 21.7604 16.0208 21.9896 15.625 22.1562C15.2396 22.3229 14.8281 22.4062 14.3906 22.4062H3.20312C2.76562 22.4062 2.34896 22.3229 1.95312 22.1562C1.56771 21.9896 1.22917 21.7604 0.9375 21.4688C0.645833 21.1771 0.416667 20.8385 0.25 20.4531C0.0833333 20.0573 0 19.6406 0 19.2031V16.3281H3.20312V19.2031H14.3906V12.8125H3.51562Z" fill="#09090B"/>
</svg>
